<svg xmlns="http://www.w3.org/2000/svg" viewBox="0 0 228.66 90.25"><defs><style>.cls-1{fill:#fff;}</style></defs><title>Asset 3</title><g id="Layer_2" data-name="Layer 2"><g id="Layer_1-2" data-name="Layer 1"><path class="cls-1" d="M20.07,20.3,20,8.12l-6,10H12L6,8.38V20.3H1.6V0H5.48l7.6,12.62L20.56,0h3.86l.06,20.3Z"/><path class="cls-1" d="M42.66,16H33.23L31.44,20.3H26.62L35.67,0h4.64l9.08,20.3H44.46Zm-1.48-3.57L38,4.61l-3.22,7.77Z"/><path class="cls-1" d="M58.9,12.33l-2.73,2.84V20.3H51.5V0h4.67V9.48l9-9.48h5.22L62,9.05,70.88,20.3H65.39Z"/><path class="cls-1" d="M88.68,16.53V20.3H73V0H88.3V3.77H77.63V8.18h9.43v3.65H77.63v4.7Z"/><path class="cls-1" d="M105.36,20.3l-3.92-5.66H97.12V20.3h-4.7V0h8.79a11.23,11.23,0,0,1,4.68.9A6.91,6.91,0,0,1,109,3.45,7,7,0,0,1,110,7.37a7,7,0,0,1-1.09,3.9,6.94,6.94,0,0,1-3.09,2.5l4.55,6.53ZM104.17,4.74A4.94,4.94,0,0,0,101,3.83H97.12V10.9H101a4.94,4.94,0,0,0,3.22-.92,3.24,3.24,0,0,0,1.1-2.61A3.24,3.24,0,0,0,104.17,4.74Z"/><path class="cls-1" d="M17.31,51.33V55.1H1.6V34.8H16.94v3.77H6.26V43h9.43v3.65H6.26v4.7Z"/><path class="cls-1" d="M21.05,34.8h9.23a13,13,0,0,1,5.84,1.26,9.43,9.43,0,0,1,3.94,3.55,10.82,10.82,0,0,1,0,10.68,9.43,9.43,0,0,1-3.94,3.55,13,13,0,0,1-5.84,1.26H21.05Zm9,16.44a6.83,6.83,0,0,0,4.86-1.69A6,6,0,0,0,36.71,45a6,6,0,0,0-1.81-4.6A6.83,6.83,0,0,0,30,38.66H25.75V51.24Z"/><path class="cls-1" d="M47.26,53q-2.43-2.4-2.43-6.87V34.8h4.7V46q0,5.46,4.53,5.46a4.23,4.23,0,0,0,3.36-1.32A6.18,6.18,0,0,0,58.58,46V34.8h4.64V46.17q0,4.47-2.42,6.87A9.17,9.17,0,0,1,54,55.45,9.16,9.16,0,0,1,47.26,53Z"/><path class="cls-1" d="M72,54.1A10.13,10.13,0,0,1,68,50.36a10.88,10.88,0,0,1,0-10.82A10.13,10.13,0,0,1,72,35.8a11.75,11.75,0,0,1,5.64-1.35,11.88,11.88,0,0,1,4.78.93A9.6,9.6,0,0,1,86,38.05l-3,2.78a6.49,6.49,0,0,0-5.1-2.38,6.81,6.81,0,0,0-3.37.83,5.87,5.87,0,0,0-2.3,2.31,7.22,7.22,0,0,0,0,6.72,5.87,5.87,0,0,0,2.3,2.31,6.81,6.81,0,0,0,3.37.83A6.46,6.46,0,0,0,82.94,49l3,2.78a9.46,9.46,0,0,1-3.6,2.7,11.92,11.92,0,0,1-4.78.93A11.7,11.7,0,0,1,72,54.1Z"/><path class="cls-1" d="M102.08,50.75H92.65L90.86,55.1H86l9-20.3h4.64l9.08,20.3h-4.93Zm-1.48-3.57-3.22-7.77-3.22,7.77Z"/><path class="cls-1" d="M114.12,38.63h-6.5V34.8h17.69v3.83h-6.5V55.1h-4.69Z"/><path class="cls-1" d="M127.83,34.8h4.7V55.1h-4.7Z"/><path class="cls-1" d="M141.48,54.08a10.06,10.06,0,0,1-4-3.75,10.84,10.84,0,0,1,0-10.76,10.15,10.15,0,0,1,4-3.76,12.58,12.58,0,0,1,11.38,0,10.33,10.33,0,0,1,4,3.76,10.35,10.35,0,0,1-4,14.51,12.5,12.5,0,0,1-11.38,0Zm8.94-3.46a5.89,5.89,0,0,0,2.28-2.31,7.22,7.22,0,0,0,0-6.72,5.89,5.89,0,0,0-2.28-2.31,6.76,6.76,0,0,0-6.49,0,5.89,5.89,0,0,0-2.28,2.31,7.22,7.22,0,0,0,0,6.72,5.89,5.89,0,0,0,2.28,2.31,6.76,6.76,0,0,0,6.49,0Z"/><path class="cls-1" d="M180.44,34.8V55.1h-3.86L166.46,42.77V55.1h-4.64V34.8h3.89L175.8,47.12V34.8Z"/><path class="cls-1" d="M3.61,89.6A10.93,10.93,0,0,1,0,87.9l1.6-3.54A10.83,10.83,0,0,0,4.7,85.9a11.57,11.57,0,0,0,3.59.58,5.7,5.7,0,0,0,3-.6,1.78,1.78,0,0,0,1-1.58,1.51,1.51,0,0,0-.57-1.2,4.15,4.15,0,0,0-1.45-.77c-.59-.19-1.38-.4-2.39-.64A31.26,31.26,0,0,1,4,80.59a6.3,6.3,0,0,1-2.54-1.77,4.79,4.79,0,0,1-1-3.25,5.72,5.72,0,0,1,1-3.2,6.42,6.42,0,0,1,2.89-2.28A11.78,11.78,0,0,1,9,69.25a15.57,15.57,0,0,1,3.8.47A11.24,11.24,0,0,1,16,71.05l-1.45,3.57A11.27,11.27,0,0,0,8.93,73,5.32,5.32,0,0,0,6,73.66a2,2,0,0,0-.94,1.68,1.63,1.63,0,0,0,1.08,1.55,16.45,16.45,0,0,0,3.32,1A32.37,32.37,0,0,1,13.28,79a6.16,6.16,0,0,1,2.54,1.74A4.63,4.63,0,0,1,16.88,84a5.59,5.59,0,0,1-1,3.17A6.51,6.51,0,0,1,13,89.41a11.86,11.86,0,0,1-4.72.84A16.81,16.81,0,0,1,3.61,89.6Z"/><path class="cls-1" d="M24.2,88.9a10.06,10.06,0,0,1-3.94-3.74,10.88,10.88,0,0,1,0-10.82A10.06,10.06,0,0,1,24.2,70.6a11.7,11.7,0,0,1,5.64-1.35,11.8,11.8,0,0,1,4.77.93,9.52,9.52,0,0,1,3.58,2.67l-3,2.78a6.53,6.53,0,0,0-5.11-2.38,6.8,6.8,0,0,0-3.36.83,5.9,5.9,0,0,0-2.31,2.31,7.29,7.29,0,0,0,0,6.72,5.9,5.9,0,0,0,2.31,2.31,6.8,6.8,0,0,0,3.36.83,6.49,6.49,0,0,0,5.11-2.41l3,2.78a9.35,9.35,0,0,1-3.59,2.7,11.93,11.93,0,0,1-4.79.93A11.63,11.63,0,0,1,24.2,88.9Z"/><path class="cls-1" d="M41.35,69.6h4.7V89.9h-4.7Z"/><path class="cls-1" d="M66.58,86.13V89.9H50.87V69.6H66.21v3.77H55.54v4.41H65v3.65H55.54v4.7Z"/><path class="cls-1" d="M88.94,69.6V89.9H85.09L75,77.58V89.9H70.33V69.6h3.88L84.3,81.93V69.6Z"/><path class="cls-1" d="M97.86,88.9a10.06,10.06,0,0,1-3.94-3.74,10.88,10.88,0,0,1,0-10.82,10.06,10.06,0,0,1,3.94-3.74,12.56,12.56,0,0,1,10.41-.42,9.52,9.52,0,0,1,3.58,2.67l-3,2.78a6.53,6.53,0,0,0-5.11-2.38,6.78,6.78,0,0,0-3.36.83,5.83,5.83,0,0,0-2.31,2.31,7.29,7.29,0,0,0,0,6.72,5.83,5.83,0,0,0,2.31,2.31,6.78,6.78,0,0,0,3.36.83,6.49,6.49,0,0,0,5.11-2.41l3,2.78a9.35,9.35,0,0,1-3.59,2.7,11.93,11.93,0,0,1-4.79.93A11.63,11.63,0,0,1,97.86,88.9Z"/><path class="cls-1" d="M130.73,86.13V89.9H115V69.6h15.34v3.77H119.68v4.41h9.43v3.65h-9.43v4.7Z"/><path class="cls-1" d="M161.3,69.6V89.9h-4.7V81.58h-9.22V89.9h-4.7V69.6h4.7v8h9.22v-8Z"/><path class="cls-1" d="M179.48,85.55h-9.43l-1.79,4.35h-4.82l9.05-20.3h4.64l9.08,20.3h-4.93ZM178,82l-3.22-7.77L171.56,82Z"/><path class="cls-1" d="M192.14,88.9a10.16,10.16,0,0,1-3.95-3.74,10.95,10.95,0,0,1,0-10.82,10.16,10.16,0,0,1,3.95-3.74,12.56,12.56,0,0,1,10.41-.42,9.6,9.6,0,0,1,3.58,2.67l-3,2.78A6.53,6.53,0,0,0,198,73.25a6.75,6.75,0,0,0-3.36.83,5.83,5.83,0,0,0-2.31,2.31,7.22,7.22,0,0,0,0,6.72,5.83,5.83,0,0,0,2.31,2.31,6.75,6.75,0,0,0,3.36.83,6.49,6.49,0,0,0,5.11-2.41l3,2.78a9.43,9.43,0,0,1-3.59,2.7,12,12,0,0,1-4.79.93A11.63,11.63,0,0,1,192.14,88.9Z"/><path class="cls-1" d="M216.69,81.93,214,84.77V89.9h-4.67V69.6H214v9.48l9-9.48h5.22l-8.41,9.05,8.9,11.25h-5.48Z"/></g></g></svg>