<svg xmlns="http://www.w3.org/2000/svg" viewBox="0 0 871.3 625.36"><defs><style>.cls-1,.cls-2,.cls-3,.cls-4,.cls-5,.cls-6{fill:none;stroke:#ccc;stroke-linejoin:round;stroke-width:2px;}.cls-1{stroke-dasharray:20;}.cls-3{stroke-dasharray:19.48 19.48;}.cls-4{stroke-dasharray:18.92 18.92;}.cls-5{stroke-dasharray:21.85 21.85;}.cls-6{stroke-dasharray:19.13 19.13;}.cls-7{fill:#ff558d;}.cls-8{fill:#c82bff;}.cls-9{fill:#ff004f;}.cls-10{fill:#fbb03b;}.cls-11{fill:#00969c;}.cls-12{fill:#8cc63f;}.cls-13{fill:#5b61ff;}.cls-14{fill:#8c6239;}.cls-15{fill:#ccc;}.cls-16{fill:#23d7ff;}.cls-17{fill:#df0025;}.cls-18{fill:#00a70f;}.cls-19{fill:#0748ff;}.cls-20{fill:#fb3800;}.cls-21{fill:#ff9887;}</style></defs><title>Asset 5</title><g id="Layer_2" data-name="Layer 2"><g id="Layer_1-2" data-name="Layer 1"><polygon class="cls-1" points="347.02 130.85 144.02 366.04 8.86 201.57 347.02 130.85"/><polyline class="cls-1" points="144.02 366.04 694.31 167.14 347.02 130.85"/><line class="cls-2" x1="694.31" y1="167.14" x2="684.98" y2="163.55"/><line class="cls-3" x1="666.79" y1="156.55" x2="312.17" y2="20.17"/><polyline class="cls-2" points="303.07 16.68 293.74 13.09 285.4 18.6"/><line class="cls-4" x1="269.62" y1="29.04" x2="25.09" y2="190.83"/><line class="cls-2" x1="17.2" y1="196.05" x2="8.86" y2="201.57"/><line class="cls-2" x1="347.02" y1="130.85" x2="342.89" y2="121.74"/><line class="cls-5" x1="333.89" y1="101.83" x2="302.37" y2="32.15"/><polyline class="cls-2" points="297.86 22.2 293.74 13.09 289.83 22.29"/><line class="cls-6" x1="282.37" y1="39.9" x2="151.66" y2="348.03"/><line class="cls-2" x1="147.93" y1="356.83" x2="144.02" y2="366.04"/><polyline class="cls-1" points="347.25 130.8 736.14 396.61 694.46 166.16 417.2 353.96 583.57 577.5"/><polyline class="cls-2" points="144.06 365.96 396.11 515.92 583.57 577.5 694.46 166.16 540.07 459.61 396.11 515.92 417.2 353.96"/><line class="cls-2" x1="143.29" y1="364.16" x2="540.07" y2="458.6"/><polyline class="cls-1" points="417.2 353.96 257.89 616.68 396.11 515.92 64.49 581.96 143.29 365.17"/><line class="cls-1" x1="257.89" y1="616.69" x2="143.29" y2="365.17"/><polyline class="cls-2" points="694.46 166.16 861.79 65.58 347.25 130.8"/><path class="cls-1" d="M736.14,396.61l125.65-331c-.58,4.71-74.27,420.1-74.27,420.1l-204,93.65"/><circle class="cls-7" cx="291.63" cy="11.84" r="11.84"/><circle class="cls-8" cx="10.02" cy="201.2" r="10.02"/><circle class="cls-9" cx="143.34" cy="365.12" r="10.02"/><circle class="cls-10" cx="540.04" cy="459.62" r="7.17"/><circle class="cls-11" cx="257.86" cy="616.7" r="8.66"/><circle class="cls-12" cx="417.17" cy="353.98" r="11.01"/><circle class="cls-13" cx="694.43" cy="166.18" r="7.08"/><circle class="cls-14" cx="347.18" cy="130.73" r="7.73"/><path class="cls-15" d="M535.76,443.4a1.19,1.19,0,0,1,.19.74,1.16,1.16,0,0,1-.49.95,1.9,1.9,0,0,1-1.22.3,2.78,2.78,0,0,1-.91-.18,1.89,1.89,0,0,1-.7-.43l.31-.6a2.15,2.15,0,0,0,1.29.54,1.11,1.11,0,0,0,.68-.15.67.67,0,0,0,.24-.53.64.64,0,0,0-.2-.54,1.23,1.23,0,0,0-.69-.19l-.62,0,0-.67.51,0q.9,0,.93-.66a.61.61,0,0,0-.18-.5.78.78,0,0,0-.54-.19,2,2,0,0,0-1.28.44l-.26-.63a2.09,2.09,0,0,1,.73-.37,2.45,2.45,0,0,1,.89-.11,1.63,1.63,0,0,1,1.09.38,1.1,1.1,0,0,1,.37.92,1.12,1.12,0,0,1-.23.66,1.06,1.06,0,0,1-.56.4A1.1,1.1,0,0,1,535.76,443.4Z"/><path class="cls-15" d="M296.34,40.65a1.38,1.38,0,0,1,.51.56,1.6,1.6,0,0,1,.16.8,1.72,1.72,0,0,1-.25.83,1.51,1.51,0,0,1-.64.53,2.07,2.07,0,0,1-.95.16,2.71,2.71,0,0,1-.88-.18,2.1,2.1,0,0,1-.7-.44l.31-.62a2.18,2.18,0,0,0,1.31.55,1,1,0,0,0,.7-.2.81.81,0,0,0,.27-.63.89.89,0,0,0-.22-.65.94.94,0,0,0-.65-.26,1.39,1.39,0,0,0-.54.08,1.2,1.2,0,0,0-.45.29l-.52,0,.11-2.82,3,.12,0,.67-2.16-.09-.05,1.31a1.41,1.41,0,0,1,.87-.21A1.58,1.58,0,0,1,296.34,40.65Z"/><path class="cls-15" d="M711.43,172.68l0,.66-.65,0,0,.9-.82,0,0-.9-2-.08,0-.62,2.27-3,.67,0-.12,3Zm-2.68-.1,1.21,0,.07-1.75Z"/><path class="cls-15" d="M349.75,148.4a1.42,1.42,0,0,1,.54.62,1.9,1.9,0,0,1-.09,1.75,1.59,1.59,0,0,1-.64.59,1.81,1.81,0,0,1-.91.18,1.78,1.78,0,0,1-1.48-.72,3,3,0,0,1-.46-1.92,4.09,4.09,0,0,1,.31-1.46,2.08,2.08,0,0,1,.77-.92,1.87,1.87,0,0,1,1.14-.28,2.54,2.54,0,0,1,.9.19,2.41,2.41,0,0,1,.75.48l-.35.67a2.09,2.09,0,0,0-1.29-.59,1,1,0,0,0-.91.45,2.67,2.67,0,0,0-.38,1.38,1.28,1.28,0,0,1,.53-.5,1.51,1.51,0,0,1,.76-.16A1.54,1.54,0,0,1,349.75,148.4Zm-.46,2.16a1,1,0,0,0,.28-.68,1,1,0,0,0-.22-.69.86.86,0,0,0-.64-.29.87.87,0,0,0-.67.24,1,1,0,0,0-.29.67,1,1,0,0,0,.24.7.88.88,0,0,0,.65.29A.81.81,0,0,0,349.29,150.56Z"/><path class="cls-15" d="M426,385.78l0,.7-3.16-.13,0-.63,1.67-1.66a2.68,2.68,0,0,0,.43-.55,1.12,1.12,0,0,0,.16-.51.6.6,0,0,0-.17-.49.77.77,0,0,0-.53-.19,2.12,2.12,0,0,0-1.3.44l-.26-.63a2.1,2.1,0,0,1,.73-.38,3,3,0,0,1,.89-.11,1.68,1.68,0,0,1,1.1.39,1.18,1.18,0,0,1,.38,1,1.7,1.7,0,0,1-.21.76,3.64,3.64,0,0,1-.61.78L424,385.7Z"/><path class="cls-15" d="M305.85,356.72a8.16,8.16,0,0,1-.2-2.17,8.42,8.42,0,0,1,.37-2.16,9,9,0,0,1,1-2.11l1,0a13.13,13.13,0,0,0-.82,2.25,10.57,10.57,0,0,0-.29,2,10.76,10.76,0,0,0,.13,2,13.85,13.85,0,0,0,.62,2.33l-1,0A9.41,9.41,0,0,1,305.85,356.72Z"/><path class="cls-15" d="M312.77,352.7a2.15,2.15,0,0,1,.72.92,3,3,0,0,1,.22,1.34,3.15,3.15,0,0,1-.33,1.33,2.18,2.18,0,0,1-.8.87,2.07,2.07,0,0,1-1.13.28,2.15,2.15,0,0,1-1-.27,1.61,1.61,0,0,1-.61-.68l0,.81-1.19-.05.28-7.13,1.21.05-.12,3a1.62,1.62,0,0,1,.66-.61,2,2,0,0,1,1-.19A2.1,2.1,0,0,1,312.77,352.7Zm-.66,3.39a1.93,1.93,0,0,0,.38-1.18,1.87,1.87,0,0,0-.28-1.18,1.27,1.27,0,0,0-1.88-.07,2.29,2.29,0,0,0-.1,2.37,1.14,1.14,0,0,0,.94.44A1.09,1.09,0,0,0,312.11,356.09Z"/><path class="cls-15" d="M314.19,359.23A13.52,13.52,0,0,0,315,357a10.46,10.46,0,0,0,.28-2,9.9,9.9,0,0,0-.12-2,13.11,13.11,0,0,0-.64-2.32l1,0a9,9,0,0,1,.84,2.18,8,8,0,0,1,.2,2.19,8.33,8.33,0,0,1-.36,2.14,10,10,0,0,1-1,2.15Z"/><path class="cls-15" d="M360.77,225.4a8.57,8.57,0,0,1,.18-4.34,9.12,9.12,0,0,1,1-2.11l1,0a12.79,12.79,0,0,0-.83,2.26,10.56,10.56,0,0,0-.28,2,9.85,9.85,0,0,0,.12,2,13.82,13.82,0,0,0,.63,2.34l-1,0A9.69,9.69,0,0,1,360.77,225.4Z"/><path class="cls-15" d="M364.46,225.73a2.14,2.14,0,0,1-.83-.91,2.91,2.91,0,0,1-.25-1.35,2.83,2.83,0,0,1,.37-1.33,2.29,2.29,0,0,1,.93-.87A2.66,2.66,0,0,1,366,221a3.13,3.13,0,0,1,1,.2,2.13,2.13,0,0,1,.76.49l-.37.84a2.37,2.37,0,0,0-.65-.41,1.87,1.87,0,0,0-.68-.16,1.3,1.3,0,0,0-1,.37,2.08,2.08,0,0,0-.1,2.37,1.32,1.32,0,0,0,1,.45,1.93,1.93,0,0,0,.7-.11,2.43,2.43,0,0,0,.67-.36l.31.86a2.21,2.21,0,0,1-.82.43,3.68,3.68,0,0,1-1.05.12A2.68,2.68,0,0,1,364.46,225.73Z"/><path class="cls-15" d="M368.08,227.87a16,16,0,0,0,.81-2.28,10.57,10.57,0,0,0,.28-2,9.9,9.9,0,0,0-.12-2,12.89,12.89,0,0,0-.64-2.32l1,0a8.86,8.86,0,0,1,.84,2.18,8.32,8.32,0,0,1,.2,2.19,7.93,7.93,0,0,1-.37,2.14,10,10,0,0,1-1,2.15Z"/><path class="cls-15" d="M247.7,484.69a8.56,8.56,0,0,1-.19-2.17,8.42,8.42,0,0,1,.37-2.16,9,9,0,0,1,1-2.11l1,0a12.44,12.44,0,0,0-.83,2.25,10.57,10.57,0,0,0-.29,2,10.76,10.76,0,0,0,.13,2,14.19,14.19,0,0,0,.62,2.34l-1,0A9.94,9.94,0,0,1,247.7,484.69Z"/><path class="cls-15" d="M255.36,480.51l-.19,4.89-1.19,0,0-.79a1.55,1.55,0,0,1-.66.61,1.92,1.92,0,0,1-1,.19,2.09,2.09,0,0,1-1.12-.35,2,2,0,0,1-.73-.92,3,3,0,0,1-.22-1.33,3.07,3.07,0,0,1,.33-1.33,2.14,2.14,0,0,1,.8-.88,2.13,2.13,0,0,1,2.08,0,1.5,1.5,0,0,1,.61.66l0-.73Zm-1.66,3.55a1.87,1.87,0,0,0,.38-1.16,1.89,1.89,0,0,0-.29-1.21,1.1,1.1,0,0,0-.92-.45,1.09,1.09,0,0,0-1,.39,2,2,0,0,0-.38,1.19,1.73,1.73,0,0,0,.29,1.17,1.28,1.28,0,0,0,1.87.07Z"/><path class="cls-15" d="M256,487.2a13.22,13.22,0,0,0,.81-2.28,10.46,10.46,0,0,0,.28-2,9.9,9.9,0,0,0-.12-2,12.81,12.81,0,0,0-.64-2.31l1,0a8.92,8.92,0,0,1,.84,2.19,8.47,8.47,0,0,1-.16,4.32,9.82,9.82,0,0,1-1,2.15Z"/><path class="cls-15" d="M193.62,122.12a8.53,8.53,0,0,1,.18-4.33,9,9,0,0,1,1-2.11l1,0A12.51,12.51,0,0,0,195,118a10.36,10.36,0,0,0-.29,2,10.71,10.71,0,0,0,.13,2,15.27,15.27,0,0,0,.62,2.34l-1,0A9.94,9.94,0,0,1,193.62,122.12Z"/><path class="cls-15" d="M201.37,115.71l-.28,7.13-1.19,0,0-.79a1.55,1.55,0,0,1-.66.61,1.92,1.92,0,0,1-1,.19,2,2,0,0,1-1.11-.36,2.18,2.18,0,0,1-.74-.94,3.1,3.1,0,0,1-.22-1.35,3.21,3.21,0,0,1,.32-1.32,2.12,2.12,0,0,1,.8-.85,2.2,2.2,0,0,1,2.08,0,1.63,1.63,0,0,1,.61.64l.11-2.94Zm-1.75,5.78a1.88,1.88,0,0,0,.38-1.17,2,2,0,0,0-.28-1.2,1.28,1.28,0,0,0-1.88-.08,1.85,1.85,0,0,0-.38,1.16,1.88,1.88,0,0,0,.29,1.2,1.12,1.12,0,0,0,.91.47A1.16,1.16,0,0,0,199.62,121.49Z"/><path class="cls-15" d="M202,124.64a13.6,13.6,0,0,0,.81-2.29,9.73,9.73,0,0,0,.28-2,9.9,9.9,0,0,0-.12-2,12.81,12.81,0,0,0-.64-2.31l1,0a9.07,9.07,0,0,1,.84,2.19,7.88,7.88,0,0,1,.2,2.18,8.41,8.41,0,0,1-.36,2.15,10,10,0,0,1-1,2.14Z"/><path class="cls-15" d="M114.78,240.06a8.53,8.53,0,0,1,.18-4.33,8.93,8.93,0,0,1,1-2.11l1,0a12.79,12.79,0,0,0-.83,2.26,10.46,10.46,0,0,0-.28,2,9.9,9.9,0,0,0,.12,2,14.33,14.33,0,0,0,.63,2.34l-1,0A9.76,9.76,0,0,1,114.78,240.06Z"/><path class="cls-15" d="M121.94,238.38l-3.37-.14a1.79,1.79,0,0,0,.35,1.18,1.36,1.36,0,0,0,1,.41,2.45,2.45,0,0,0,1.52-.46l.31.85a2.92,2.92,0,0,1-.87.41,3.37,3.37,0,0,1-1,.13A2.56,2.56,0,0,1,118,240a2.51,2.51,0,0,1-.62-1.89,2.78,2.78,0,0,1,.36-1.31,2.26,2.26,0,0,1,.88-.88,2.34,2.34,0,0,1,1.24-.27,2,2,0,0,1,1.57.71,2.63,2.63,0,0,1,.51,1.82Zm-2.88-1.59a1.37,1.37,0,0,0-.42.81l2.27.09a1.33,1.33,0,0,0-.3-.85,1,1,0,0,0-.75-.31A1.09,1.09,0,0,0,119.06,236.79Z"/><path class="cls-15" d="M122.4,242.55a14.83,14.83,0,0,0,.81-2.28,10.68,10.68,0,0,0,.28-2,10,10,0,0,0-.12-2.05,12.81,12.81,0,0,0-.64-2.31l1,0a8.86,8.86,0,0,1,.84,2.18,8.32,8.32,0,0,1,.2,2.19,8,8,0,0,1-.37,2.14,10,10,0,0,1-1,2.15Z"/><path class="cls-15" d="M488.84,520a8.13,8.13,0,0,1-.2-2.17,8.57,8.57,0,0,1,.37-2.16,9,9,0,0,1,1-2.11l1,0a13.2,13.2,0,0,0-.82,2.26,10.47,10.47,0,0,0-.29,2,10.66,10.66,0,0,0,.13,2,14.19,14.19,0,0,0,.62,2.34l-1,0A9.41,9.41,0,0,1,488.84,520Z"/><path class="cls-15" d="M493.39,515.3v.42l1.09,0,0,.92-1.09,0-.16,4-1.21-.05.16-4-.93,0,0-.91.93,0v-.47a1.89,1.89,0,0,1,.5-1.32,1.58,1.58,0,0,1,1.28-.42,2.29,2.29,0,0,1,.76.14l0,1a2.4,2.4,0,0,0-.47-.09C493.69,514.45,493.41,514.73,493.39,515.3Z"/><path class="cls-15" d="M495.28,522.46a13.84,13.84,0,0,0,.81-2.28,10.41,10.41,0,0,0,.16-4.06,12.89,12.89,0,0,0-.64-2.32l1,0a8.86,8.86,0,0,1,.84,2.18,7.91,7.91,0,0,1,.2,2.19,8.33,8.33,0,0,1-.36,2.14,10,10,0,0,1-1,2.15Z"/><path class="cls-15" d="M515.79,361.78a8.24,8.24,0,0,1-.19-2.18,8.56,8.56,0,0,1,.36-2.16,9,9,0,0,1,1-2.11l1,0a12.79,12.79,0,0,0-.83,2.26,9.73,9.73,0,0,0-.28,2,9.9,9.9,0,0,0,.12,2,15.27,15.27,0,0,0,.62,2.34l-1,0A8.84,8.84,0,0,1,515.79,361.78Z"/><path class="cls-15" d="M523.5,357.6l-.19,4.74a2.26,2.26,0,0,1-.7,1.7,2.61,2.61,0,0,1-1.87.52,4.06,4.06,0,0,1-2-.55l.23-.91a3.81,3.81,0,0,0,1.75.53,1.14,1.14,0,0,0,1.36-1.24l0-1a1.65,1.65,0,0,1-.67.61,1.78,1.78,0,0,1-1,.21,2.07,2.07,0,0,1-1.13-.35,2,2,0,0,1-.74-.89,2.81,2.81,0,0,1-.22-1.28,2.87,2.87,0,0,1,.32-1.27,2.09,2.09,0,0,1,.81-.83,2.19,2.19,0,0,1,1.15-.26,2.15,2.15,0,0,1,1,.27,1.58,1.58,0,0,1,.62.66l0-.74ZM521.82,361a1.69,1.69,0,0,0,.38-1.08,1.65,1.65,0,0,0-.29-1.11,1.19,1.19,0,0,0-.94-.44,1.22,1.22,0,0,0-1,.36,1.93,1.93,0,0,0-.08,2.19,1.17,1.17,0,0,0,.93.44A1.22,1.22,0,0,0,521.82,361Z"/><path class="cls-15" d="M524.16,364.29A13.84,13.84,0,0,0,525,362a10.41,10.41,0,0,0,.16-4.06,12.89,12.89,0,0,0-.64-2.32l1,0a8.86,8.86,0,0,1,.84,2.18,7.91,7.91,0,0,1,.2,2.19,8.33,8.33,0,0,1-.36,2.14,10,10,0,0,1-1,2.15Z"/><path class="cls-15" d="M671.67,114.38a8.13,8.13,0,0,1-.19-2.17,8,8,0,0,1,.37-2.16,8.93,8.93,0,0,1,1-2.11l1,0a12.44,12.44,0,0,0-.83,2.25,10.56,10.56,0,0,0-.28,2,10,10,0,0,0,.12,2,14.33,14.33,0,0,0,.63,2.34l-1,0A9.94,9.94,0,0,1,671.67,114.38Z"/><path class="cls-15" d="M679.16,112.09l-.12,3-1.21,0,.11-2.94a1.25,1.25,0,0,0-.19-.86.83.83,0,0,0-.67-.29,1.16,1.16,0,0,0-.91.32,1.27,1.27,0,0,0-.37.92l-.11,2.77-1.2,0,.28-7.13,1.2,0-.12,2.94a1.75,1.75,0,0,1,.7-.59,2,2,0,0,1,.93-.18C678.65,110.05,679.21,110.74,679.16,112.09Z"/><path class="cls-15" d="M679.88,116.89a13.84,13.84,0,0,0,.81-2.28,10.68,10.68,0,0,0,.28-2,10,10,0,0,0-.12-2,12.81,12.81,0,0,0-.64-2.31l1,0a8.86,8.86,0,0,1,.84,2.18,8.32,8.32,0,0,1,.2,2.19,7.93,7.93,0,0,1-.37,2.14,10,10,0,0,1-1,2.15Z"/><path class="cls-15" d="M241.85,195.88a8.13,8.13,0,0,1-.19-2.17,8.49,8.49,0,0,1,.36-2.16,9,9,0,0,1,1-2.11l1,0a12.72,12.72,0,0,0-.83,2.25,9.83,9.83,0,0,0-.28,2,9.94,9.94,0,0,0,.12,2,15.27,15.27,0,0,0,.62,2.34l-1,0A9,9,0,0,1,241.85,195.88Z"/><path class="cls-15" d="M244.87,189.3l1.34,0,0,1.19-1.35,0Zm-.21,7.11.2-4.89,1.2,0-.19,4.89Z"/><path class="cls-15" d="M246.74,198.26a13.84,13.84,0,0,0,.81-2.28,9.94,9.94,0,0,0,.29-2,10.76,10.76,0,0,0-.13-2.05,13.56,13.56,0,0,0-.63-2.31l1,0a9.73,9.73,0,0,1,.84,2.18,8.36,8.36,0,0,1-.17,4.33,10,10,0,0,1-1,2.15Z"/><path class="cls-15" d="M518.08,175a8.53,8.53,0,0,1,.18-4.33,8.93,8.93,0,0,1,1-2.11l1,0a13.57,13.57,0,0,0-.83,2.25,10.56,10.56,0,0,0-.28,2,9.94,9.94,0,0,0,.12,2,14.33,14.33,0,0,0,.63,2.34l-1,0A9.94,9.94,0,0,1,518.08,175Z"/><path class="cls-15" d="M522.18,174.65l2.82.11,0,.92-4.26-.17,0-.84,2.82-3-2.64-.11,0-.91,4.08.17,0,.82Z"/><path class="cls-15" d="M525.54,177.47a13.84,13.84,0,0,0,.81-2.28,9.92,9.92,0,0,0,.16-4.06,13.65,13.65,0,0,0-.63-2.32l1,0a9.73,9.73,0,0,1,.84,2.18,8.36,8.36,0,0,1-.17,4.33,10,10,0,0,1-1,2.15Z"/><path class="cls-15" d="M698.66,455.17a8.24,8.24,0,0,1-.19-2.18,8.15,8.15,0,0,1,.37-2.16,8.93,8.93,0,0,1,1-2.11l1,0A13.64,13.64,0,0,0,700,451a10.46,10.46,0,0,0-.28,2,9.9,9.9,0,0,0,.12,2,14.33,14.33,0,0,0,.63,2.34l-1,0A9.69,9.69,0,0,1,698.66,455.17Z"/><path class="cls-15" d="M704.28,453.28l2,2.6-1.44-.05-1.25-1.71-1.38,1.6-1.44-.06,2.16-2.43L701,450.78l1.44.05,1.13,1.57,1.25-1.47,1.44.06Z"/><path class="cls-15" d="M706.35,457.65a16,16,0,0,0,.81-2.28,10.57,10.57,0,0,0,.28-2,9.9,9.9,0,0,0-.12-2,13.11,13.11,0,0,0-.64-2.32l1,0a9,9,0,0,1,.84,2.18,8.36,8.36,0,0,1,.2,2.19,7.93,7.93,0,0,1-.37,2.14,10,10,0,0,1-1,2.15Z"/><circle class="cls-16" cx="860.29" cy="65.29" r="11.01"/><circle class="cls-17" cx="583.57" cy="577.5" r="14.11"/><circle class="cls-18" cx="396.54" cy="515.76" r="9.32"/><circle class="cls-19" cx="66.9" cy="580.7" r="13.08"/><circle class="cls-20" cx="786.95" cy="485.32" r="10.02"/><circle class="cls-21" cx="736.65" cy="396.45" r="7.18"/><path class="cls-15" d="M753.52,202.83a8.6,8.6,0,0,1-.19-2.17,8,8,0,0,1,.37-2.16,8.93,8.93,0,0,1,1-2.11l1,0a12.33,12.33,0,0,0-.82,2.25,9.84,9.84,0,0,0-.29,2,10.75,10.75,0,0,0,.12,2,14,14,0,0,0,.63,2.33l-1,0A9.94,9.94,0,0,1,753.52,202.83Z"/><path class="cls-15" d="M756.54,196.25l1.35.05,0,1.19-1.34-.05Zm-1,8.23a.78.78,0,0,0,.57-.18.87.87,0,0,0,.24-.65l.2-5.18,1.2.05-.2,5.24a1.85,1.85,0,0,1-.5,1.31,1.64,1.64,0,0,1-1.27.42,2.33,2.33,0,0,1-.75-.14l0-1A1.47,1.47,0,0,0,755.52,204.48Z"/><path class="cls-15" d="M758.42,205.21a13.84,13.84,0,0,0,.81-2.28,10.67,10.67,0,0,0,.28-2,9.9,9.9,0,0,0-.12-2,12.81,12.81,0,0,0-.64-2.31l1,0a8.86,8.86,0,0,1,.84,2.18,8.28,8.28,0,0,1,.2,2.18,8,8,0,0,1-.37,2.15,10.2,10.2,0,0,1-1,2.15Z"/><path class="cls-15" d="M586.51,434.13a8.17,8.17,0,0,1-.19-2.17,8,8,0,0,1,.37-2.16,8.93,8.93,0,0,1,1-2.11l1,0a12.44,12.44,0,0,0-.83,2.25,10.56,10.56,0,0,0-.28,2,10,10,0,0,0,.12,2,14,14,0,0,0,.63,2.33l-1,0A9.94,9.94,0,0,1,586.51,434.13Z"/><path class="cls-15" d="M594.18,434.85l-1.51-.06-2-2.34-.09,2.26-1.2,0,.28-7.13,1.2.05-.18,4.4,2.11-2.08,1.46.06-2.29,2.25Z"/><path class="cls-15" d="M594.21,436.62a13.84,13.84,0,0,0,.81-2.28,9.94,9.94,0,0,0,.29-2,10.71,10.71,0,0,0-.13-2.05,12.69,12.69,0,0,0-.63-2.31l1,0a9.73,9.73,0,0,1,.84,2.18,8.32,8.32,0,0,1,.2,2.19,8.42,8.42,0,0,1-.37,2.14,9.79,9.79,0,0,1-1,2.15Z"/><path class="cls-15" d="M430.42,471.32a8.17,8.17,0,0,1-.19-2.17,8,8,0,0,1,.37-2.16,8.93,8.93,0,0,1,1-2.11l1,0a13.25,13.25,0,0,0-.83,2.25,10.56,10.56,0,0,0-.28,2,10,10,0,0,0,.12,2,14,14,0,0,0,.63,2.33l-1,0A9.94,9.94,0,0,1,430.42,471.32Z"/><path class="cls-15" d="M433.24,471.85l.28-7.13,1.2,0-.28,7.13Z"/><path class="cls-15" d="M435.32,473.7a16,16,0,0,0,.81-2.28,10.67,10.67,0,0,0,.28-2,9.9,9.9,0,0,0-.12-2,12.81,12.81,0,0,0-.64-2.31l1,0a8.86,8.86,0,0,1,.84,2.18,8.28,8.28,0,0,1,.2,2.18,8,8,0,0,1-.37,2.15,9.91,9.91,0,0,1-1,2.14Z"/></g></g></svg>