<?xml version="1.0" encoding="UTF-8" standalone="no"?>
<svg
   xmlns:dc="http://purl.org/dc/elements/1.1/"
   xmlns:cc="http://creativecommons.org/ns#"
   xmlns:rdf="http://www.w3.org/1999/02/22-rdf-syntax-ns#"
   xmlns:svg="http://www.w3.org/2000/svg"
   xmlns="http://www.w3.org/2000/svg"
   xmlns:sodipodi="http://sodipodi.sourceforge.net/DTD/sodipodi-0.dtd"
   xmlns:inkscape="http://www.inkscape.org/namespaces/inkscape"
   id="svg6315"
   version="1.1"
   viewBox="0 0 871.3 625.36"
   sodipodi:docname="mesh-bg-03.svg"
   inkscape:version="0.92.1 r15371">
  <sodipodi:namedview
     pagecolor="#ffffff"
     bordercolor="#666666"
     borderopacity="1"
     objecttolerance="10"
     gridtolerance="10"
     guidetolerance="10"
     inkscape:pageopacity="0"
     inkscape:pageshadow="2"
     inkscape:window-width="1223"
     inkscape:window-height="779"
     id="namedview4147"
     showgrid="false"
     inkscape:zoom="0.95030416"
     inkscape:cx="438.92857"
     inkscape:cy="312.67998"
     inkscape:window-x="57"
     inkscape:window-y="21"
     inkscape:window-maximized="1"
     inkscape:current-layer="svg6315"
     inkscape:snap-global="false" />
  <metadata
     id="metadata6646">
    <rdf:RDF>
      <cc:Work
         rdf:about="">
        <dc:format>image/svg+xml</dc:format>
        <dc:type
           rdf:resource="http://purl.org/dc/dcmitype/StillImage" />
        <dc:title>MESH</dc:title>
      </cc:Work>
    </rdf:RDF>
  </metadata>
  <defs
     id="defs6644" />
  <title
     id="title6548">MESH</title>
  <g
     id="g6530"
     style="display:inline"
     inkscape:label="numbers">
    <path
       class="cls-15"
       d="m 535.76,443.4 a 1.19,1.19 0 0 1 0.19,0.74 1.16,1.16 0 0 1 -0.49,0.95 1.9,1.9 0 0 1 -1.22,0.3 2.78,2.78 0 0 1 -0.91,-0.18 1.89,1.89 0 0 1 -0.7,-0.43 l 0.31,-0.6 a 2.15,2.15 0 0 0 1.29,0.54 1.11,1.11 0 0 0 0.68,-0.15 0.67,0.67 0 0 0 0.24,-0.53 0.64,0.64 0 0 0 -0.2,-0.54 1.23,1.23 0 0 0 -0.69,-0.19 h -0.62 v -0.67 h 0.51 q 0.9,0 0.93,-0.66 a 0.61,0.61 0 0 0 -0.18,-0.5 0.78,0.78 0 0 0 -0.54,-0.19 2,2 0 0 0 -1.28,0.44 l -0.26,-0.63 a 2.09,2.09 0 0 1 0.73,-0.37 2.45,2.45 0 0 1 0.89,-0.11 1.63,1.63 0 0 1 1.09,0.38 1.1,1.1 0 0 1 0.37,0.92 1.12,1.12 0 0 1 -0.23,0.66 1.06,1.06 0 0 1 -0.56,0.4 1.1,1.1 0 0 1 0.65,0.42 z"
       id="path6207"
       style="fill:#cccccc"
       inkscape:connector-curvature="0" />
    <path
       class="cls-15"
       d="m 296.34,40.65 a 1.38,1.38 0 0 1 0.51,0.56 1.6,1.6 0 0 1 0.16,0.8 1.72,1.72 0 0 1 -0.25,0.83 1.51,1.51 0 0 1 -0.64,0.53 2.07,2.07 0 0 1 -0.95,0.16 2.71,2.71 0 0 1 -0.88,-0.18 2.1,2.1 0 0 1 -0.7,-0.44 l 0.31,-0.62 a 2.18,2.18 0 0 0 1.31,0.55 1,1 0 0 0 0.7,-0.2 0.81,0.81 0 0 0 0.27,-0.63 0.89,0.89 0 0 0 -0.22,-0.65 0.94,0.94 0 0 0 -0.65,-0.26 1.39,1.39 0 0 0 -0.54,0.08 1.2,1.2 0 0 0 -0.45,0.29 h -0.52 l 0.11,-2.82 3,0.12 v 0.67 l -2.16,-0.09 -0.05,1.31 a 1.41,1.41 0 0 1 0.87,-0.21 1.58,1.58 0 0 1 0.77,0.2 z"
       id="path6209"
       style="fill:#cccccc"
       inkscape:connector-curvature="0" />
    <path
       class="cls-15"
       d="m 711.43,172.68 v 0.66 h -0.65 v 0.9 h -0.82 v -0.9 l -2,-0.08 v -0.62 l 2.27,-3 h 0.67 l -0.12,3 z m -2.68,-0.1 h 1.21 l 0.07,-1.75 z"
       id="path6211"
       style="fill:#cccccc"
       inkscape:connector-curvature="0" />
    <path
       class="cls-15"
       d="m 349.75,148.4 a 1.42,1.42 0 0 1 0.54,0.62 1.9,1.9 0 0 1 -0.09,1.75 1.59,1.59 0 0 1 -0.64,0.59 1.81,1.81 0 0 1 -0.91,0.18 1.78,1.78 0 0 1 -1.48,-0.72 3,3 0 0 1 -0.46,-1.92 4.09,4.09 0 0 1 0.31,-1.46 2.08,2.08 0 0 1 0.77,-0.92 1.87,1.87 0 0 1 1.14,-0.28 2.54,2.54 0 0 1 0.9,0.19 2.41,2.41 0 0 1 0.75,0.48 l -0.35,0.67 a 2.09,2.09 0 0 0 -1.29,-0.59 1,1 0 0 0 -0.91,0.45 2.67,2.67 0 0 0 -0.38,1.38 1.28,1.28 0 0 1 0.53,-0.5 1.51,1.51 0 0 1 0.76,-0.16 1.54,1.54 0 0 1 0.81,0.24 z m -0.46,2.16 a 1,1 0 0 0 0.28,-0.68 1,1 0 0 0 -0.22,-0.69 0.86,0.86 0 0 0 -0.64,-0.29 0.87,0.87 0 0 0 -0.67,0.24 1,1 0 0 0 -0.29,0.67 1,1 0 0 0 0.24,0.7 0.88,0.88 0 0 0 0.65,0.29 0.81,0.81 0 0 0 0.65,-0.24 z"
       id="path6213"
       style="fill:#cccccc"
       inkscape:connector-curvature="0" />
    <path
       class="cls-15"
       d="m 426,385.78 v 0.7 l -3.16,-0.13 v -0.63 l 1.67,-1.66 a 2.68,2.68 0 0 0 0.43,-0.55 1.12,1.12 0 0 0 0.16,-0.51 0.6,0.6 0 0 0 -0.17,-0.49 0.77,0.77 0 0 0 -0.53,-0.19 2.12,2.12 0 0 0 -1.3,0.44 l -0.26,-0.63 a 2.1,2.1 0 0 1 0.73,-0.38 3,3 0 0 1 0.89,-0.11 1.68,1.68 0 0 1 1.1,0.39 1.18,1.18 0 0 1 0.38,1 1.7,1.7 0 0 1 -0.21,0.76 3.64,3.64 0 0 1 -0.61,0.78 L 424,385.7 Z"
       id="path6215"
       style="fill:#cccccc"
       inkscape:connector-curvature="0" />
    <path
       class="cls-15"
       d="m 305.85,356.72 a 8.16,8.16 0 0 1 -0.2,-2.17 8.42,8.42 0 0 1 0.37,-2.16 9,9 0 0 1 1,-2.11 h 1 a 13.13,13.13 0 0 0 -0.82,2.25 10.57,10.57 0 0 0 -0.29,2 10.76,10.76 0 0 0 0.13,2 13.85,13.85 0 0 0 0.62,2.33 h -1 a 9.41,9.41 0 0 1 -0.81,-2.14 z"
       id="path6217"
       style="fill:#cccccc"
       inkscape:connector-curvature="0" />
    <path
       class="cls-15"
       d="m 312.77,352.7 a 2.15,2.15 0 0 1 0.72,0.92 3,3 0 0 1 0.22,1.34 3.15,3.15 0 0 1 -0.33,1.33 2.18,2.18 0 0 1 -0.8,0.87 2.07,2.07 0 0 1 -1.13,0.28 2.15,2.15 0 0 1 -1,-0.27 1.61,1.61 0 0 1 -0.61,-0.68 v 0.81 l -1.19,-0.05 0.28,-7.13 1.21,0.05 -0.12,3 a 1.62,1.62 0 0 1 0.66,-0.61 2,2 0 0 1 1,-0.19 2.1,2.1 0 0 1 1.09,0.33 z m -0.66,3.39 a 1.93,1.93 0 0 0 0.38,-1.18 1.87,1.87 0 0 0 -0.28,-1.18 1.27,1.27 0 0 0 -1.88,-0.07 2.29,2.29 0 0 0 -0.1,2.37 1.14,1.14 0 0 0 0.94,0.44 1.09,1.09 0 0 0 0.94,-0.38 z"
       id="path6219"
       style="fill:#cccccc"
       inkscape:connector-curvature="0" />
    <path
       class="cls-15"
       d="M 314.19,359.23 A 13.52,13.52 0 0 0 315,357 a 10.46,10.46 0 0 0 0.28,-2 9.9,9.9 0 0 0 -0.12,-2 13.11,13.11 0 0 0 -0.64,-2.32 h 1 a 9,9 0 0 1 0.84,2.18 8,8 0 0 1 0.2,2.19 8.33,8.33 0 0 1 -0.36,2.14 10,10 0 0 1 -1,2.15 z"
       id="path6221"
       style="fill:#cccccc"
       inkscape:connector-curvature="0" />
    <path
       class="cls-15"
       d="m 360.77,225.4 a 8.57,8.57 0 0 1 0.18,-4.34 9.12,9.12 0 0 1 1,-2.11 h 1 a 12.79,12.79 0 0 0 -0.83,2.26 10.56,10.56 0 0 0 -0.28,2 9.85,9.85 0 0 0 0.12,2 13.82,13.82 0 0 0 0.63,2.34 h -1 a 9.69,9.69 0 0 1 -0.82,-2.15 z"
       id="path6223"
       style="fill:#cccccc"
       inkscape:connector-curvature="0" />
    <path
       class="cls-15"
       d="m 364.46,225.73 a 2.14,2.14 0 0 1 -0.83,-0.91 2.91,2.91 0 0 1 -0.25,-1.35 2.83,2.83 0 0 1 0.37,-1.33 2.29,2.29 0 0 1 0.93,-0.87 2.66,2.66 0 0 1 1.32,-0.27 3.13,3.13 0 0 1 1,0.2 2.13,2.13 0 0 1 0.76,0.49 l -0.37,0.84 a 2.37,2.37 0 0 0 -0.65,-0.41 1.87,1.87 0 0 0 -0.68,-0.16 1.3,1.3 0 0 0 -1,0.37 2.08,2.08 0 0 0 -0.1,2.37 1.32,1.32 0 0 0 1,0.45 1.93,1.93 0 0 0 0.7,-0.11 2.43,2.43 0 0 0 0.67,-0.36 l 0.31,0.86 a 2.21,2.21 0 0 1 -0.82,0.43 3.68,3.68 0 0 1 -1.05,0.12 2.68,2.68 0 0 1 -1.31,-0.36 z"
       id="path6225"
       style="fill:#cccccc"
       inkscape:connector-curvature="0" />
    <path
       class="cls-15"
       d="m 368.08,227.87 a 16,16 0 0 0 0.81,-2.28 10.57,10.57 0 0 0 0.28,-2 9.9,9.9 0 0 0 -0.12,-2 12.89,12.89 0 0 0 -0.64,-2.32 h 1 a 8.86,8.86 0 0 1 0.84,2.18 8.32,8.32 0 0 1 0.2,2.19 7.93,7.93 0 0 1 -0.37,2.14 10,10 0 0 1 -1,2.15 z"
       id="path6227"
       style="fill:#cccccc"
       inkscape:connector-curvature="0" />
    <path
       class="cls-15"
       d="m 247.7,484.69 a 8.56,8.56 0 0 1 -0.19,-2.17 8.42,8.42 0 0 1 0.37,-2.16 9,9 0 0 1 1,-2.11 h 1 a 12.44,12.44 0 0 0 -0.83,2.25 10.57,10.57 0 0 0 -0.29,2 10.76,10.76 0 0 0 0.13,2 14.19,14.19 0 0 0 0.62,2.34 h -1 a 9.94,9.94 0 0 1 -0.81,-2.15 z"
       id="path6229"
       style="fill:#cccccc"
       inkscape:connector-curvature="0" />
    <path
       class="cls-15"
       d="m 255.36,480.51 -0.19,4.89 h -1.19 v -0.79 a 1.55,1.55 0 0 1 -0.66,0.61 1.92,1.92 0 0 1 -1,0.19 2.09,2.09 0 0 1 -1.12,-0.35 2,2 0 0 1 -0.73,-0.92 3,3 0 0 1 -0.22,-1.33 3.07,3.07 0 0 1 0.33,-1.33 2.14,2.14 0 0 1 0.8,-0.88 2.13,2.13 0 0 1 2.08,0 1.5,1.5 0 0 1 0.61,0.66 v -0.73 z m -1.66,3.55 a 1.87,1.87 0 0 0 0.38,-1.16 1.89,1.89 0 0 0 -0.29,-1.21 1.1,1.1 0 0 0 -0.92,-0.45 1.09,1.09 0 0 0 -1,0.39 2,2 0 0 0 -0.38,1.19 1.73,1.73 0 0 0 0.29,1.17 1.28,1.28 0 0 0 1.87,0.07 z"
       id="path6231"
       style="fill:#cccccc"
       inkscape:connector-curvature="0" />
    <path
       class="cls-15"
       d="m 256,487.2 a 13.22,13.22 0 0 0 0.81,-2.28 10.46,10.46 0 0 0 0.28,-2 9.9,9.9 0 0 0 -0.12,-2 12.81,12.81 0 0 0 -0.64,-2.31 h 1 a 8.92,8.92 0 0 1 0.84,2.19 8.47,8.47 0 0 1 -0.16,4.32 9.82,9.82 0 0 1 -1,2.15 z"
       id="path6233"
       style="fill:#cccccc"
       inkscape:connector-curvature="0" />
    <path
       class="cls-15"
       d="m 193.62,122.12 a 8.53,8.53 0 0 1 0.18,-4.33 9,9 0 0 1 1,-2.11 h 1 a 12.51,12.51 0 0 0 -0.8,2.32 10.36,10.36 0 0 0 -0.29,2 10.71,10.71 0 0 0 0.13,2 15.27,15.27 0 0 0 0.62,2.34 h -1 a 9.94,9.94 0 0 1 -0.84,-2.22 z"
       id="path6235"
       style="fill:#cccccc"
       inkscape:connector-curvature="0" />
    <path
       class="cls-15"
       d="m 201.37,115.71 -0.28,7.13 h -1.19 v -0.79 a 1.55,1.55 0 0 1 -0.66,0.61 1.92,1.92 0 0 1 -1,0.19 2,2 0 0 1 -1.11,-0.36 2.18,2.18 0 0 1 -0.74,-0.94 3.1,3.1 0 0 1 -0.22,-1.35 3.21,3.21 0 0 1 0.32,-1.32 2.12,2.12 0 0 1 0.8,-0.85 2.2,2.2 0 0 1 2.08,0 1.63,1.63 0 0 1 0.61,0.64 l 0.11,-2.94 z m -1.75,5.78 a 1.88,1.88 0 0 0 0.38,-1.17 2,2 0 0 0 -0.28,-1.2 1.28,1.28 0 0 0 -1.88,-0.08 1.85,1.85 0 0 0 -0.38,1.16 1.88,1.88 0 0 0 0.29,1.2 1.12,1.12 0 0 0 0.91,0.47 1.16,1.16 0 0 0 0.96,-0.38 z"
       id="path6237"
       style="fill:#cccccc"
       inkscape:connector-curvature="0" />
    <path
       class="cls-15"
       d="m 202,124.64 a 13.6,13.6 0 0 0 0.81,-2.29 9.73,9.73 0 0 0 0.28,-2 9.9,9.9 0 0 0 -0.12,-2 12.81,12.81 0 0 0 -0.64,-2.31 h 1 a 9.07,9.07 0 0 1 0.84,2.19 7.88,7.88 0 0 1 0.2,2.18 8.41,8.41 0 0 1 -0.36,2.15 10,10 0 0 1 -1,2.14 z"
       id="path6239"
       style="fill:#cccccc"
       inkscape:connector-curvature="0" />
    <path
       class="cls-15"
       d="m 114.78,240.06 a 8.53,8.53 0 0 1 0.18,-4.33 8.93,8.93 0 0 1 1,-2.11 h 1 a 12.79,12.79 0 0 0 -0.83,2.26 10.46,10.46 0 0 0 -0.28,2 9.9,9.9 0 0 0 0.12,2 14.33,14.33 0 0 0 0.63,2.34 h -1 a 9.76,9.76 0 0 1 -0.82,-2.16 z"
       id="path6241"
       style="fill:#cccccc"
       inkscape:connector-curvature="0" />
    <path
       class="cls-15"
       d="m 121.94,238.38 -3.37,-0.14 a 1.79,1.79 0 0 0 0.35,1.18 1.36,1.36 0 0 0 1,0.41 2.45,2.45 0 0 0 1.52,-0.46 l 0.31,0.85 a 2.92,2.92 0 0 1 -0.87,0.41 3.37,3.37 0 0 1 -1,0.13 2.56,2.56 0 0 1 -1.88,-0.76 2.51,2.51 0 0 1 -0.62,-1.89 2.78,2.78 0 0 1 0.36,-1.31 2.26,2.26 0 0 1 0.88,-0.88 2.34,2.34 0 0 1 1.24,-0.27 2,2 0 0 1 1.57,0.71 2.63,2.63 0 0 1 0.51,1.82 z m -2.88,-1.59 a 1.37,1.37 0 0 0 -0.42,0.81 l 2.27,0.09 a 1.33,1.33 0 0 0 -0.3,-0.85 1,1 0 0 0 -0.75,-0.31 1.09,1.09 0 0 0 -0.8,0.26 z"
       id="path6243"
       style="fill:#cccccc"
       inkscape:connector-curvature="0" />
    <path
       class="cls-15"
       d="m 122.4,242.55 a 14.83,14.83 0 0 0 0.81,-2.28 10.68,10.68 0 0 0 0.28,-2 10,10 0 0 0 -0.12,-2.05 12.81,12.81 0 0 0 -0.64,-2.31 h 1 a 8.86,8.86 0 0 1 0.84,2.18 8.32,8.32 0 0 1 0.2,2.19 8,8 0 0 1 -0.37,2.14 10,10 0 0 1 -1,2.15 z"
       id="path6245"
       style="fill:#cccccc"
       inkscape:connector-curvature="0" />
    <path
       class="cls-15"
       d="m 488.84,520 a 8.13,8.13 0 0 1 -0.2,-2.17 8.57,8.57 0 0 1 0.37,-2.16 9,9 0 0 1 1,-2.11 h 1 a 13.2,13.2 0 0 0 -0.82,2.26 10.47,10.47 0 0 0 -0.29,2 10.66,10.66 0 0 0 0.13,2 14.19,14.19 0 0 0 0.62,2.34 h -1 A 9.41,9.41 0 0 1 488.84,520 Z"
       id="path6247"
       style="fill:#cccccc"
       inkscape:connector-curvature="0" />
    <path
       class="cls-15"
       d="m 493.39,515.3 v 0.42 h 1.09 v 0.92 h -1.09 l -0.16,4 -1.21,-0.05 0.16,-4 h -0.93 v -0.91 h 0.93 v -0.47 a 1.89,1.89 0 0 1 0.5,-1.32 1.58,1.58 0 0 1 1.28,-0.42 2.29,2.29 0 0 1 0.76,0.14 v 1 a 2.4,2.4 0 0 0 -0.47,-0.09 c -0.56,-0.07 -0.84,0.21 -0.86,0.78 z"
       id="path6249"
       style="fill:#cccccc"
       inkscape:connector-curvature="0" />
    <path
       class="cls-15"
       d="m 495.28,522.46 a 13.84,13.84 0 0 0 0.81,-2.28 10.41,10.41 0 0 0 0.16,-4.06 12.89,12.89 0 0 0 -0.64,-2.32 h 1 a 8.86,8.86 0 0 1 0.84,2.18 7.91,7.91 0 0 1 0.2,2.19 8.33,8.33 0 0 1 -0.36,2.14 10,10 0 0 1 -1,2.15 z"
       id="path6251"
       style="fill:#cccccc"
       inkscape:connector-curvature="0" />
    <path
       class="cls-15"
       d="m 515.79,361.78 a 8.24,8.24 0 0 1 -0.19,-2.18 8.56,8.56 0 0 1 0.36,-2.16 9,9 0 0 1 1,-2.11 h 1 a 12.79,12.79 0 0 0 -0.83,2.26 9.73,9.73 0 0 0 -0.28,2 9.9,9.9 0 0 0 0.12,2 15.27,15.27 0 0 0 0.62,2.34 h -1 a 8.84,8.84 0 0 1 -0.8,-2.15 z"
       id="path6253"
       style="fill:#cccccc"
       inkscape:connector-curvature="0" />
    <path
       class="cls-15"
       d="m 523.5,357.6 -0.19,4.74 a 2.26,2.26 0 0 1 -0.7,1.7 2.61,2.61 0 0 1 -1.87,0.52 4.06,4.06 0 0 1 -2,-0.55 l 0.23,-0.91 a 3.81,3.81 0 0 0 1.75,0.53 1.14,1.14 0 0 0 1.36,-1.24 v -1 a 1.65,1.65 0 0 1 -0.67,0.61 1.78,1.78 0 0 1 -1,0.21 2.07,2.07 0 0 1 -1.13,-0.35 2,2 0 0 1 -0.74,-0.89 2.81,2.81 0 0 1 -0.22,-1.28 2.87,2.87 0 0 1 0.32,-1.27 2.09,2.09 0 0 1 0.81,-0.83 2.19,2.19 0 0 1 1.15,-0.26 2.15,2.15 0 0 1 1,0.27 1.58,1.58 0 0 1 0.62,0.66 v -0.74 z m -1.68,3.4 a 1.69,1.69 0 0 0 0.38,-1.08 1.65,1.65 0 0 0 -0.29,-1.11 1.19,1.19 0 0 0 -0.94,-0.44 1.22,1.22 0 0 0 -1,0.36 1.93,1.93 0 0 0 -0.08,2.19 1.17,1.17 0 0 0 0.93,0.44 1.22,1.22 0 0 0 1,-0.36 z"
       id="path6255"
       style="fill:#cccccc"
       inkscape:connector-curvature="0" />
    <path
       class="cls-15"
       d="M 524.16,364.29 A 13.84,13.84 0 0 0 525,362 a 10.41,10.41 0 0 0 0.16,-4.06 12.89,12.89 0 0 0 -0.64,-2.32 h 1 a 8.86,8.86 0 0 1 0.84,2.18 7.91,7.91 0 0 1 0.2,2.19 8.33,8.33 0 0 1 -0.36,2.14 10,10 0 0 1 -1,2.15 z"
       id="path6257"
       style="fill:#cccccc"
       inkscape:connector-curvature="0" />
    <path
       class="cls-15"
       d="m 671.67,114.38 a 8.13,8.13 0 0 1 -0.19,-2.17 8,8 0 0 1 0.37,-2.16 8.93,8.93 0 0 1 1,-2.11 h 1 a 12.44,12.44 0 0 0 -0.83,2.25 10.56,10.56 0 0 0 -0.28,2 10,10 0 0 0 0.12,2 14.33,14.33 0 0 0 0.63,2.34 h -1 a 9.94,9.94 0 0 1 -0.82,-2.15 z"
       id="path6259"
       style="fill:#cccccc"
       inkscape:connector-curvature="0" />
    <path
       class="cls-15"
       d="m 679.16,112.09 -0.12,3 h -1.21 l 0.11,-2.94 a 1.25,1.25 0 0 0 -0.19,-0.86 0.83,0.83 0 0 0 -0.67,-0.29 1.16,1.16 0 0 0 -0.91,0.32 1.27,1.27 0 0 0 -0.37,0.92 l -0.11,2.77 h -1.2 l 0.28,-7.13 h 1.2 l -0.12,2.94 a 1.75,1.75 0 0 1 0.7,-0.59 2,2 0 0 1 0.93,-0.18 c 1.17,0 1.73,0.69 1.68,2.04 z"
       id="path6261"
       style="fill:#cccccc"
       inkscape:connector-curvature="0" />
    <path
       class="cls-15"
       d="m 679.88,116.89 a 13.84,13.84 0 0 0 0.81,-2.28 10.68,10.68 0 0 0 0.28,-2 10,10 0 0 0 -0.12,-2 12.81,12.81 0 0 0 -0.64,-2.31 h 1 a 8.86,8.86 0 0 1 0.84,2.18 8.32,8.32 0 0 1 0.2,2.19 7.93,7.93 0 0 1 -0.37,2.14 10,10 0 0 1 -1,2.15 z"
       id="path6263"
       style="fill:#cccccc"
       inkscape:connector-curvature="0" />
    <path
       class="cls-15"
       d="m 241.85,195.88 a 8.13,8.13 0 0 1 -0.19,-2.17 8.49,8.49 0 0 1 0.36,-2.16 9,9 0 0 1 1,-2.11 h 1 a 12.72,12.72 0 0 0 -0.83,2.25 9.83,9.83 0 0 0 -0.28,2 9.94,9.94 0 0 0 0.12,2 15.27,15.27 0 0 0 0.62,2.34 h -1 a 9,9 0 0 1 -0.8,-2.15 z"
       id="path6265"
       style="fill:#cccccc"
       inkscape:connector-curvature="0" />
    <path
       class="cls-15"
       d="m 244.87,189.3 h 1.34 v 1.19 h -1.35 z m -0.21,7.11 0.2,-4.89 h 1.2 l -0.19,4.89 z"
       id="path6267"
       style="fill:#cccccc"
       inkscape:connector-curvature="0" />
    <path
       class="cls-15"
       d="m 246.74,198.26 a 13.84,13.84 0 0 0 0.81,-2.28 9.94,9.94 0 0 0 0.29,-2 10.76,10.76 0 0 0 -0.13,-2.05 13.56,13.56 0 0 0 -0.63,-2.31 h 1 a 9.73,9.73 0 0 1 0.84,2.18 8.36,8.36 0 0 1 -0.17,4.33 10,10 0 0 1 -1,2.15 z"
       id="path6269"
       style="fill:#cccccc"
       inkscape:connector-curvature="0" />
    <path
       class="cls-15"
       d="m 518.08,175 a 8.53,8.53 0 0 1 0.18,-4.33 8.93,8.93 0 0 1 1,-2.11 h 1 a 13.57,13.57 0 0 0 -0.83,2.25 10.56,10.56 0 0 0 -0.28,2 9.94,9.94 0 0 0 0.12,2 14.33,14.33 0 0 0 0.63,2.34 h -1 A 9.94,9.94 0 0 1 518.08,175 Z"
       id="path6271"
       style="fill:#cccccc"
       inkscape:connector-curvature="0" />
    <path
       class="cls-15"
       d="m 522.18,174.65 2.82,0.11 v 0.92 l -4.26,-0.17 v -0.84 l 2.82,-3 -2.64,-0.11 v -0.91 l 4.08,0.17 v 0.82 z"
       id="path6273"
       style="fill:#cccccc"
       inkscape:connector-curvature="0" />
    <path
       class="cls-15"
       d="m 525.54,177.47 a 13.84,13.84 0 0 0 0.81,-2.28 9.92,9.92 0 0 0 0.16,-4.06 13.65,13.65 0 0 0 -0.63,-2.32 h 1 a 9.73,9.73 0 0 1 0.84,2.18 8.36,8.36 0 0 1 -0.17,4.33 10,10 0 0 1 -1,2.15 z"
       id="path6275"
       style="fill:#cccccc"
       inkscape:connector-curvature="0" />
    <path
       class="cls-15"
       d="m 698.66,455.17 a 8.24,8.24 0 0 1 -0.19,-2.18 8.15,8.15 0 0 1 0.37,-2.16 8.93,8.93 0 0 1 1,-2.11 h 1 A 13.64,13.64 0 0 0 700,451 a 10.46,10.46 0 0 0 -0.28,2 9.9,9.9 0 0 0 0.12,2 14.33,14.33 0 0 0 0.63,2.34 h -1 a 9.69,9.69 0 0 1 -0.81,-2.17 z"
       id="path6277"
       style="fill:#cccccc"
       inkscape:connector-curvature="0" />
    <path
       class="cls-15"
       d="m 704.28,453.28 2,2.6 -1.44,-0.05 -1.25,-1.71 -1.38,1.6 -1.44,-0.06 2.16,-2.43 -1.93,-2.45 1.44,0.05 1.13,1.57 1.25,-1.47 1.44,0.06 z"
       id="path6279"
       style="fill:#cccccc"
       inkscape:connector-curvature="0" />
    <path
       class="cls-15"
       d="m 706.35,457.65 a 16,16 0 0 0 0.81,-2.28 10.57,10.57 0 0 0 0.28,-2 9.9,9.9 0 0 0 -0.12,-2 13.11,13.11 0 0 0 -0.64,-2.32 h 1 a 9,9 0 0 1 0.84,2.18 8.36,8.36 0 0 1 0.2,2.19 7.93,7.93 0 0 1 -0.37,2.14 10,10 0 0 1 -1,2.15 z"
       id="path6281"
       style="fill:#cccccc"
       inkscape:connector-curvature="0" />
    <path
       class="cls-15"
       d="m 753.52,202.83 a 8.6,8.6 0 0 1 -0.19,-2.17 8,8 0 0 1 0.37,-2.16 8.93,8.93 0 0 1 1,-2.11 h 1 a 12.33,12.33 0 0 0 -0.82,2.25 9.84,9.84 0 0 0 -0.29,2 10.75,10.75 0 0 0 0.12,2 14,14 0 0 0 0.63,2.33 h -1 a 9.94,9.94 0 0 1 -0.82,-2.14 z"
       id="path6295"
       style="fill:#cccccc"
       inkscape:connector-curvature="0" />
    <path
       class="cls-15"
       d="m 756.54,196.25 1.35,0.05 v 1.19 l -1.34,-0.05 z m -1,8.23 a 0.78,0.78 0 0 0 0.57,-0.18 0.87,0.87 0 0 0 0.24,-0.65 l 0.2,-5.18 1.2,0.05 -0.2,5.24 a 1.85,1.85 0 0 1 -0.5,1.31 1.64,1.64 0 0 1 -1.27,0.42 2.33,2.33 0 0 1 -0.75,-0.14 v -1 a 1.47,1.47 0 0 0 0.49,0.13 z"
       id="path6297"
       style="fill:#cccccc"
       inkscape:connector-curvature="0" />
    <path
       class="cls-15"
       d="m 758.42,205.21 a 13.84,13.84 0 0 0 0.81,-2.28 10.67,10.67 0 0 0 0.28,-2 9.9,9.9 0 0 0 -0.12,-2 12.81,12.81 0 0 0 -0.64,-2.31 h 1 a 8.86,8.86 0 0 1 0.84,2.18 8.28,8.28 0 0 1 0.2,2.18 8,8 0 0 1 -0.37,2.15 10.2,10.2 0 0 1 -1,2.15 z"
       id="path6299"
       style="display:inline;fill:#cccccc"
       inkscape:connector-curvature="0" />
    <path
       class="cls-15"
       d="m 586.51,434.13 a 8.17,8.17 0 0 1 -0.19,-2.17 8,8 0 0 1 0.37,-2.16 8.93,8.93 0 0 1 1,-2.11 h 1 a 12.44,12.44 0 0 0 -0.83,2.25 10.56,10.56 0 0 0 -0.28,2 10,10 0 0 0 0.12,2 14,14 0 0 0 0.63,2.33 h -1 a 9.94,9.94 0 0 1 -0.82,-2.14 z"
       id="path6301"
       style="display:inline;fill:#cccccc"
       inkscape:connector-curvature="0" />
    <path
       class="cls-15"
       d="m 594.18,434.85 -1.51,-0.06 -2,-2.34 -0.09,2.26 h -1.2 l 0.28,-7.13 1.2,0.05 -0.18,4.4 2.11,-2.08 1.46,0.06 -2.29,2.25 z"
       id="path6303"
       style="display:inline;fill:#cccccc"
       inkscape:connector-curvature="0" />
    <path
       class="cls-15"
       d="m 594.21,436.62 a 13.84,13.84 0 0 0 0.81,-2.28 9.94,9.94 0 0 0 0.29,-2 10.71,10.71 0 0 0 -0.13,-2.05 12.69,12.69 0 0 0 -0.63,-2.31 h 1 a 9.73,9.73 0 0 1 0.84,2.18 8.32,8.32 0 0 1 0.2,2.19 8.42,8.42 0 0 1 -0.37,2.14 9.79,9.79 0 0 1 -1,2.15 z"
       id="path6305"
       style="display:inline;fill:#cccccc"
       inkscape:connector-curvature="0" />
    <path
       class="cls-15"
       d="m 430.42,471.32 a 8.17,8.17 0 0 1 -0.19,-2.17 8,8 0 0 1 0.37,-2.16 8.93,8.93 0 0 1 1,-2.11 h 1 a 13.25,13.25 0 0 0 -0.83,2.25 10.56,10.56 0 0 0 -0.28,2 10,10 0 0 0 0.12,2 14,14 0 0 0 0.63,2.33 h -1 a 9.94,9.94 0 0 1 -0.82,-2.14 z"
       id="path6307"
       style="display:inline;fill:#cccccc"
       inkscape:connector-curvature="0" />
    <path
       class="cls-15"
       d="m 433.24,471.85 0.28,-7.13 h 1.2 l -0.28,7.13 z"
       id="path6309"
       style="display:inline;fill:#cccccc"
       inkscape:connector-curvature="0" />
    <path
       class="cls-15"
       d="m 435.32,473.7 a 16,16 0 0 0 0.81,-2.28 10.67,10.67 0 0 0 0.28,-2 9.9,9.9 0 0 0 -0.12,-2 12.81,12.81 0 0 0 -0.64,-2.31 h 1 a 8.86,8.86 0 0 1 0.84,2.18 8.28,8.28 0 0 1 0.2,2.18 8,8 0 0 1 -0.37,2.15 9.91,9.91 0 0 1 -1,2.14 z"
       id="path6311"
       style="display:inline;fill:#cccccc"
       inkscape:connector-curvature="0" />
  </g>
  <g
     id="g4184"
     inkscape:label="lines"
     style="display:inline">
    <line
       class="cls-3"
       x1="538.77484"
       y1="460.14972"
       x2="397.7674"
       y2="518.02594"
       id="line16159"
       style="fill:none;stroke:#cccccc;stroke-width:2;stroke-linejoin:round;stroke-miterlimit:4;stroke-dasharray:0.2, 0.2;stroke-dashoffset:0"
       inkscape:label="line13" />
    <line
       class="cls-3"
       x1="694.1106"
       y1="165.91771"
       x2="297.4769"
       y2="15.011482"
       id="line6159"
       style="display:inline;fill:none;stroke:#cccccc;stroke-width:2;stroke-linejoin:round;stroke-miterlimit:4;stroke-dasharray:19.48, 19.48;stroke-dashoffset:0"
       inkscape:label="line6" />
    <line
       class="cls-6"
       x1="290.67819"
       y1="11.533381"
       x2="145.45638"
       y2="361.66449"
       id="line6173"
       style="fill:none;stroke:#cccccc;stroke-width:2;stroke-linejoin:round;stroke-miterlimit:4;stroke-dasharray:19.13, 19.13;stroke-dashoffset:0"
       inkscape:label="line5" />
    <line
       x1="144.16437"
       y1="363.33862"
       x2="393.5582"
       y2="512.76447"
       id="line5030"
       style="fill:none;stroke:#cccccc;stroke-width:2px;stroke-linejoin:round"
       inkscape:label="line18" />
    <line
       id="line5032"
       x1="417.76099"
       y1="351.76337"
       x2="393.5582"
       y2="512.76447"
       style="fill:none;stroke:#cccccc;stroke-width:2px;stroke-linejoin:round"
       inkscape:label="line17" />
    <line
       x1="585.07581"
       y1="581.16364"
       x2="393.5582"
       y2="512.76447"
       id="line5034"
       style="fill:none;stroke:#cccccc;stroke-width:2px;stroke-linejoin:round"
       inkscape:label="line16" />
    <line
       id="line5036"
       x1="585.07581"
       y1="581.16364"
       x2="694.51447"
       y2="164.45493"
       style="fill:none;stroke:#cccccc;stroke-width:2px;stroke-linejoin:round"
       inkscape:label="line15" />
    <line
       x1="538.77484"
       y1="460.14972"
       x2="694.51447"
       y2="164.45493"
       id="line5038"
       style="fill:none;stroke:#cccccc;stroke-width:2px;stroke-linejoin:round"
       inkscape:label="line14" />
    <line
       class="cls-2"
       x1="143.28999"
       y1="364.16"
       x2="540.07001"
       y2="458.60001"
       id="line6181"
       style="fill:none;stroke:#cccccc;stroke-width:2px;stroke-linejoin:round"
       inkscape:label="line4" />
    <line
       x1="346.20496"
       y1="130.78149"
       x2="858.67242"
       y2="66.591515"
       id="line5016"
       style="fill:none;stroke:#cccccc;stroke-width:2px;stroke-linejoin:round"
       inkscape:label="line8" />
    <line
       x1="693.46222"
       y1="166.55951"
       x2="859.72473"
       y2="65.539223"
       id="line5018"
       style="fill:none;stroke:#cccccc;stroke-width:2px;stroke-linejoin:round"
       inkscape:label="line7" />
    <line
       class="cls-1"
       x1="257.89001"
       y1="616.69"
       x2="143.28999"
       y2="365.17001"
       id="line6185"
       style="display:inline;fill:none;stroke:#cccccc;stroke-width:2px;stroke-linejoin:round;stroke-dasharray:20"
       inkscape:label="line3" />
    <line
       id="line5022"
       x1="67.346863"
       y1="582.21588"
       x2="396.71509"
       y2="515.92133"
       style="display:inline;fill:none;stroke:#cccccc;stroke-width:2px;stroke-linejoin:round;stroke-dasharray:20"
       inkscape:label="line11" />
    <line
       x1="257.81219"
       y1="616.94165"
       x2="396.71509"
       y2="515.92133"
       style="display:inline;fill:none;stroke:#cccccc;stroke-width:2px;stroke-linejoin:round;stroke-dasharray:20"
       id="line5024"
       inkscape:label="line10" />
    <line
       id="line5026"
       x1="257.81219"
       y1="616.94165"
       x2="416.70871"
       y2="354.92026"
       style="display:inline;fill:none;stroke:#cccccc;stroke-width:2px;stroke-linejoin:round;stroke-dasharray:20"
       inkscape:label="line9" />
    <line
       class="cls-4"
       x1="291.15887"
       y1="11.785397"
       x2="14.602574"
       y2="199.19585"
       id="line6163"
       style="display:inline;fill:none;stroke:#cccccc;stroke-width:2;stroke-linejoin:round;stroke-miterlimit:4;stroke-dasharray:18.92, 18.92;stroke-dashoffset:0"
       inkscape:label="line2" />
    <line
       class="cls-4"
       x1="67.346863"
       y1="582.21588"
       x2="143.11208"
       y2="365.44321"
       id="line16163"
       style="display:inline;fill:none;stroke:#cccccc;stroke-width:2;stroke-linejoin:round;stroke-miterlimit:4;stroke-dasharray:18.92, 18.92;stroke-dashoffset:0"
       inkscape:label="line12" />
    <line
       class="cls-5"
       x1="347.14258"
       y1="131.71776"
       x2="291.1944"
       y2="15.942061"
       id="line6169"
       style="display:inline;fill:none;stroke:#cccccc;stroke-width:2.20000005;stroke-linejoin:round;stroke-miterlimit:4;stroke-dasharray:24.035, 24.035;stroke-dashoffset:0"
       inkscape:label="line1" />
    <line
       x1="692.40991"
       y1="164.45493"
       x2="416.70868"
       y2="354.92026"
       id="line5347"
       style="display:inline;fill:none;stroke:#cccccc;stroke-width:2px;stroke-linejoin:round;stroke-dasharray:20"
       inkscape:label="line23" />
    <line
       id="line5349"
       x1="692.40991"
       y1="164.45493"
       x2="735.55396"
       y2="397.01205"
       style="display:inline;fill:none;stroke:#cccccc;stroke-width:2px;stroke-linejoin:round;stroke-dasharray:20"
       inkscape:label="line22" />
    <line
       x1="346.20493"
       y1="130.78149"
       x2="735.55396"
       y2="397.01205"
       id="line5351"
       style="display:inline;fill:none;stroke:#cccccc;stroke-width:2px;stroke-linejoin:round;stroke-dasharray:20"
       inkscape:label="line21" />
    <line
       id="line5353"
       x1="585.07581"
       y1="579.05902"
       x2="416.70868"
       y2="354.92026"
       style="display:inline;fill:none;stroke:#cccccc;stroke-width:2px;stroke-linejoin:round;stroke-dasharray:20"
       inkscape:label="line20" />
    <line
       x1="694.51447"
       y1="165.50722"
       x2="149.42584"
       y2="364.3909"
       id="line5782"
       style="display:inline;fill:none;stroke:#cccccc;stroke-width:2px;stroke-linejoin:round;stroke-dasharray:20"
       inkscape:label="line25" />
    <line
       id="line5784"
       x1="694.51447"
       y1="165.50722"
       x2="348.30954"
       y2="130.78149"
       style="display:inline;fill:none;stroke:#cccccc;stroke-width:2px;stroke-linejoin:round;stroke-dasharray:20"
       inkscape:label="line24" />
    <line
       x1="141.00749"
       y1="364.3909"
       x2="349.36182"
       y2="130.78149"
       id="line5796"
       style="display:inline;fill:none;stroke:#cccccc;stroke-width:2px;stroke-linejoin:round;stroke-dasharray:20"
       inkscape:label="line28" />
    <line
       id="line5798"
       x1="10.522951"
       y1="201.28523"
       x2="349.36182"
       y2="130.78149"
       style="display:inline;fill:none;stroke:#cccccc;stroke-width:2px;stroke-linejoin:round;stroke-dasharray:20"
       inkscape:label="line27" />
    <line
       x1="10.522951"
       y1="201.28523"
       x2="142.05978"
       y2="366.49551"
       id="line5800"
       style="display:inline;fill:none;stroke:#cccccc;stroke-width:2px;stroke-linejoin:round;stroke-dasharray:20"
       inkscape:label="line26" />
    <line
       x1="859.72474"
       y1="65.539222"
       x2="790.2733"
       y2="485.40479"
       id="line6035"
       style="display:inline;fill:none;stroke:#cccccc;stroke-width:2px;stroke-linejoin:round;stroke-dasharray:20"
       inkscape:label="line31" />
    <line
       id="line6037"
       x1="859.72474"
       y1="65.539222"
       x2="736.60627"
       y2="397.01204"
       style="display:inline;fill:none;stroke:#cccccc;stroke-width:2px;stroke-linejoin:round;stroke-dasharray:20"
       inkscape:label="line30" />
    <line
       id="line6039"
       x1="585.07583"
       y1="579.05902"
       x2="790.2733"
       y2="485.40479"
       style="display:inline;fill:none;stroke:#cccccc;stroke-width:2px;stroke-linejoin:round;stroke-dasharray:20"
       inkscape:label="line29" />
  </g>
  <g
     id="g6546"
     style="display:inline"
     inkscape:label="circle">
    <circle
       class="cls-7"
       cx="291.63"
       cy="11.84"
       r="11.84"
       id="circle6191"
       style="fill:#ff558d" />
    <circle
       class="cls-8"
       cx="10.02"
       cy="201.2"
       r="10.02"
       id="circle6193"
       style="fill:#c82bff" />
    <circle
       class="cls-9"
       cx="143.34"
       cy="365.12"
       r="10.02"
       id="circle6195"
       style="fill:#ff004f" />
    <circle
       class="cls-10"
       cx="540.03998"
       cy="459.62"
       r="7.1700001"
       id="circle6197"
       style="fill:#fbb03b" />
    <circle
       class="cls-11"
       cx="257.85999"
       cy="616.70001"
       r="8.6599998"
       id="circle6199"
       style="fill:#00969c" />
    <circle
       class="cls-12"
       cx="417.17001"
       cy="353.98001"
       r="11.01"
       id="circle6201"
       style="fill:#8cc63f" />
    <circle
       class="cls-13"
       cx="694.42999"
       cy="166.17999"
       r="7.0799999"
       id="circle6203"
       style="fill:#5b61ff" />
    <circle
       class="cls-14"
       cx="347.17999"
       cy="130.73"
       r="7.73"
       id="circle6205"
       style="fill:#8c6239" />
    <circle
       class="cls-16"
       cx="860.28998"
       cy="65.290001"
       r="11.01"
       id="circle6283"
       style="fill:#23d7ff" />
    <circle
       class="cls-17"
       cx="583.57001"
       cy="577.5"
       r="14.11"
       id="circle6285"
       style="fill:#df0025" />
    <circle
       class="cls-18"
       cx="396.54001"
       cy="515.76001"
       r="9.3199997"
       id="circle6287"
       style="fill:#00a70f" />
    <circle
       class="cls-19"
       cx="66.900002"
       cy="580.70001"
       r="13.08"
       id="circle6289"
       style="fill:#0748ff" />
    <circle
       class="cls-20"
       cx="786.95001"
       cy="485.32001"
       r="10.02"
       id="circle6291"
       style="fill:#fb3800" />
    <circle
       class="cls-21"
       cx="736.65002"
       cy="396.45001"
       r="7.1799998"
       id="circle6293"
       style="fill:#ff9887" />
  </g>
</svg>
