<svg xmlns="http://www.w3.org/2000/svg" viewBox="0 0 179.74 47.45"><defs><style>.cls-1{fill:#fff;}</style></defs><title>Asset 1</title><g id="Layer_2" data-name="Layer 2"><g id="Layer_1-2" data-name="Layer 1"><path class="cls-1" d="M0,44.85,5.45,2.22a1.24,1.24,0,0,1,1.26-1h10.8a1.28,1.28,0,0,1,1.2.75l8.86,19.15c.41,1,2.84,1,3.25,0L39.62,2a1.28,1.28,0,0,1,1.2-.76h10.8a1.24,1.24,0,0,1,1.26,1l5.43,42.63a1.2,1.2,0,0,1-1.26,1.35H46.83a1.26,1.26,0,0,1-1.27-1L42.14,25.66a1.32,1.32,0,0,0-2.46-.27L31.76,45.48a1.27,1.27,0,0,1-1.18.72h-3.4a1.28,1.28,0,0,1-1.2-.74l-7.35-19.9a1.32,1.32,0,0,0-2.46.25l-3.4,19.4a1.26,1.26,0,0,1-1.27,1H1.28A1.2,1.2,0,0,1,0,44.85Z"/><path class="cls-1" d="M90.79,11.15H78a1.23,1.23,0,0,0-1.29,1.16V17.5A1.23,1.23,0,0,0,78,18.66H89.94a1.22,1.22,0,0,1,1.28,1.16v7.57a1.22,1.22,0,0,1-1.28,1.17H78a1.23,1.23,0,0,0-1.29,1.16v5.43A1.23,1.23,0,0,0,78,36.31H90.79a1.23,1.23,0,0,1,1.29,1.16V45a1.23,1.23,0,0,1-1.29,1.16H65.11A1.22,1.22,0,0,1,63.83,45V2.41a1.22,1.22,0,0,1,1.28-1.16H90.79a1.23,1.23,0,0,1,1.29,1.16V10A1.23,1.23,0,0,1,90.79,11.15Z"/><path class="cls-1" d="M126.34,11.53a1.36,1.36,0,0,1-1.87.43,15,15,0,0,0-3-1.5,12.33,12.33,0,0,0-4.08-.74,7.15,7.15,0,0,0-4.08,1.07,3.25,3.25,0,0,0-1.58,2.8,2.63,2.63,0,0,0,.79,2,6.73,6.73,0,0,0,2.07,1.34,17.89,17.89,0,0,0,2.9,1c1.07.28,2.14.58,3.19.9q6.33,1.91,9.25,5.1a11.77,11.77,0,0,1,2.93,8.31,14.94,14.94,0,0,1-1.28,6.26,13.24,13.24,0,0,1-3.75,4.8,17.86,17.86,0,0,1-6.06,3.1,27.53,27.53,0,0,1-8.13,1.1A31.94,31.94,0,0,1,97.14,43a1.11,1.11,0,0,1-.45-1.53l4.24-7.23a1.38,1.38,0,0,1,1.95-.35,21.2,21.2,0,0,0,4.53,2.55A15,15,0,0,0,113,37.56a7.17,7.17,0,0,0,4.71-1.31,3.87,3.87,0,0,0,1.55-3,3.6,3.6,0,0,0-.4-1.76,3.84,3.84,0,0,0-1.31-1.37A11.06,11.06,0,0,0,115.14,29c-1-.35-2.18-.75-3.59-1.19-1.66-.48-3.3-1-4.9-1.58a15.79,15.79,0,0,1-4.28-2.29,11,11,0,0,1-3-3.61,11.71,11.71,0,0,1-1.15-5.52,14.5,14.5,0,0,1,1.22-6,13.57,13.57,0,0,1,3.42-4.65,15.69,15.69,0,0,1,5.4-3A22.49,22.49,0,0,1,115.37,0a34.75,34.75,0,0,1,7.71.92,37.05,37.05,0,0,1,6.53,2.17,1.12,1.12,0,0,1,.59,1.58Z"/><path class="cls-1" d="M152.47,18.6h12.22A1.23,1.23,0,0,0,166,17.44v-15a1.22,1.22,0,0,1,1.28-1.16h9.91a1.22,1.22,0,0,1,1.28,1.16L179.74,45a1.23,1.23,0,0,1-1.29,1.16H167.26A1.22,1.22,0,0,1,166,45V28.82a1.23,1.23,0,0,0-1.29-1.16H152.47a1.22,1.22,0,0,0-1.28,1.16V45a1.22,1.22,0,0,1-1.28,1.16h-11.2A1.22,1.22,0,0,1,137.43,45l1.28-42.63A1.23,1.23,0,0,1,140,1.25h9.92a1.22,1.22,0,0,1,1.28,1.16v15A1.22,1.22,0,0,0,152.47,18.6Z"/></g></g></svg>